<?xml version="1.0" encoding="UTF-8"?>
<svg width="48px" height="48px" viewBox="0 0 48 48" version="1.1" xmlns="https://www.w3.org/2000/svg" xmlns:xlink="https://www.w3.org/1999/xlink">
    <title>Fill 69</title>
    <g id="Page-1" stroke="none" stroke-width="1" fill="none" fill-rule="evenodd">
        <g id="header" transform="translate(-150.000000, -8.000000)" fill="#A57F56">
            <path d="M174.0001,8 C160.745092,8 150.0001,18.7451421 150.0001,31.999903 C150.0001,37.5816413 151.905703,42.7180745 155.101628,46.7945073 C156.793988,45.5245633 158.070534,42.987586 159.330393,37.5370138 L161.345431,28.8524988 C162.490229,23.8016339 162.430272,21.962204 162.430272,21.962204 C162.430272,21.962204 163.365708,21.3178215 164.790495,20.9014274 C167.346886,20.1545955 168.28465,20.6233785 168.619746,23.2364167 L170.907789,40.8018077 L178.775458,21.5316455 C179.927434,18.744366 180.140289,17.6420663 180.241963,16.7584414 C180.241963,16.7584414 180.883825,16.1996273 182.601992,15.6974707 C185.703423,14.7913381 186.384868,15.817771 186.058116,18.7356345 L183.97245,36.8361677 C183.719625,39.064051 184.671165,39.7142545 186.096535,39.2978604 C188.149797,38.6979113 189.740677,36.0419919 190.247299,34.8543178 C190.875967,34.6707629 191.155957,34.9600656 191.118315,35.5652536 C190.916132,37.8897652 187.812761,42.0273182 183.956539,43.154066 C180.981424,44.0231384 178.790204,42.881062 178.572111,40.1223053 C178.440168,38.45246 178.534856,36.939199 178.759935,34.9053484 L180.062676,23.7180058 L172.568715,42.2847996 C171.636578,44.5994155 171.424694,46.258589 171.424694,46.258589 C171.424694,46.258589 170.503811,47.0843921 168.827362,47.5743246 C166.564349,48.235394 165.991368,46.9545842 165.687706,44.7408653 L163.539173,28.3972981 L160.442787,42.9307344 C159.775118,46.0942433 158.877519,48.2307372 157.726707,49.6380563 C162.004175,53.5864274 167.719819,56 174.0001,56 C187.255108,56 198.0001,45.2546639 198.0001,31.999903 C198.0001,18.7451421 187.255108,8 174.0001,8" id="Fill-69"></path>
        </g>
    </g>
</svg>