<?xml version="1.0" encoding="UTF-8" standalone="no"?>
<svg width="1000px" height="1000px" viewBox="0 0 1000 1000" version="1.1" xmlns="http://www.w3.org/2000/svg" xmlns:xlink="http://www.w3.org/1999/xlink">
    <!-- Generator: Sketch 42 (36781) - http://www.bohemiancoding.com/sketch -->
    <title>progress-slim</title>
    <desc>Created with Sketch.</desc>
    <defs></defs>
    <g id="Page-1" stroke="none" stroke-width="1" fill="none" fill-rule="evenodd">
        <g id="progress-slim" fill="#050101">
            <path d="M329.255603,910 C322.149443,910 315.778302,907.23451 310.321597,901.778769 L269.23377,860.716987 C263.770313,855.254494 261,848.882389 261,841.775264 C261,834.682608 263.770313,828.317255 269.23377,822.854762 L592.158465,499.97058 L269.23377,177.175141 C263.770313,171.724223 261,165.354047 261,158.244028 C261,151.145584 263.770313,144.776373 269.23377,139.31388 L310.321597,98.2328058 C315.785054,92.769348 322.156195,90 329.255603,90 C336.355976,90 342.727116,92.769348 348.18961,98.2328058 L731.091766,481.074193 C736.555224,486.526075 739.325536,492.895286 739.325536,500.005305 C739.325536,507.104714 736.555224,513.473925 731.091766,518.936418 L348.18961,901.778769 C342.743515,907.23451 336.373339,910 329.255603,910" id="Fill-1"></path>
        </g>
    </g>
</svg>