<?xml version="1.0" encoding="UTF-8"?>
<svg width="24px" height="24px" viewBox="0 0 24 24" version="1.1" xmlns="http://www.w3.org/2000/svg" xmlns:xlink="http://www.w3.org/1999/xlink">
    <title>twitter</title>
    <g id="twitter" stroke="none" stroke-width="1" fill="none" fill-rule="evenodd">
        <g transform="translate(2.000000, 4.000000)" fill="#FFFFFF" fill-rule="nonzero" id="path-1">
            <path d="M20,2.27519231 C19.264191,2.57692308 18.4739935,2.78057692 17.6431608,2.87115385 C18.4902476,2.40269231 19.1410353,1.66076923 19.447987,0.77692308 C18.6546637,1.21019231 17.7769442,1.52634615 16.8423356,1.69538462 C16.0933983,0.95980769 15.0268817,0.5 13.8459615,0.5 C11.5797699,0.5 9.7436859,2.195 9.7436859,4.28634615 C9.7436859,4.58288462 9.7793198,4.8725 9.8493373,5.14942308 C6.43910978,4.99134615 3.41585396,3.48384615 1.3915979,1.19288462 C1.03900975,1.7525 0.83645911,2.40269231 0.83645911,3.09673077 C0.83645911,4.41096154 1.56101525,5.56942308 2.66129032,6.2490385 C1.98924731,6.2288462 1.35658915,6.0592308 0.80332583,5.77538462 C0.80270068,5.79096154 0.80270068,5.80769231 0.80270068,5.82269231 C0.80270068,7.6578846 2.2168042,9.1884615 4.09414854,9.5363462 C3.75031258,9.6223077 3.38772193,9.6690385 3.01325331,9.6690385 C2.74818705,9.6690385 2.49187297,9.6453846 2.24181045,9.6015385 C2.7631908,11.105 4.2791948,12.2 6.0740185,12.2311538 C4.67054264,13.2465385 2.90135034,13.8528846 0.97899475,13.8528846 C0.64766192,13.8528846 0.32070518,13.835 0,13.7998077 C1.81545386,14.8728846 3.97224306,15.5 6.28969742,15.5 C13.8365841,15.5 17.9644911,9.7301923 17.9644911,4.72596154 C17.9644911,4.56211538 17.9594899,4.39826923 17.951988,4.23557692 C18.7540635,3.70192308 19.4492373,3.03557692 20,2.27519231 Z"></path>
        </g>
    </g>
</svg>