<?xml version="1.0" encoding="UTF-8"?>
<svg width="24px" height="24px" viewBox="0 0 24 24" version="1.1" xmlns="http://www.w3.org/2000/svg" xmlns:xlink="http://www.w3.org/1999/xlink">
    <title>twitter_light</title>
    <g id="twitter_light" stroke="none" stroke-width="1" fill="none" fill-rule="evenodd">
        <g id="twitter" transform="translate(3.000000, 4.800000)" fill="#FFFFFF" fill-rule="nonzero">
            <path d="M18,2.04767308 C17.3377719,2.31923077 16.6265941,2.50251923 15.8788447,2.58403846 C16.6412228,2.16242308 17.2269318,1.49469231 17.5031883,0.699230772 C16.7891973,1.08917308 15.9992498,1.37371153 15.158102,1.52584616 C14.4840585,0.863826921 13.5241935,0.45 12.4613653,0.45 C10.4217929,0.45 8.76931731,1.9755 8.76931731,3.85771153 C8.76931731,4.12459616 8.80138782,4.38525 8.86440357,4.63448077 C5.7951988,4.49221154 3.07426856,3.13546153 1.25243811,1.07359616 C0.935108775,1.57725 0.752813199,2.16242308 0.752813199,2.78705769 C0.752813199,3.96986539 1.40491373,5.01248077 2.39516129,5.62413465 C1.79032258,5.60596158 1.22093023,5.45330772 0.722993247,5.19784616 C0.722430612,5.21186539 0.722430612,5.22692308 0.722430612,5.24042308 C0.722430612,6.89209614 1.99512378,8.26961535 3.68473369,8.58271158 C3.37528132,8.66007693 3.04894974,8.70213465 2.71192798,8.70213465 C2.47336835,8.70213465 2.24268567,8.68084614 2.01762941,8.64138465 C2.48687172,9.9945 3.85127532,10.98 5.46661665,11.0080384 C4.20348838,11.9218846 2.61121531,12.4675961 0.881095275,12.4675961 C0.582895728,12.4675961 0.288634662,12.4515 0,12.4198269 C1.63390847,13.3855961 3.57501875,13.95 5.66072768,13.95 C12.4529257,13.95 16.168042,8.75717307 16.168042,4.25336539 C16.168042,4.10590384 16.1635409,3.95844231 16.1567892,3.81201923 C16.8786571,3.33173077 17.5043136,2.73201923 18,2.04767308 Z" id="path-1"></path>
        </g>
    </g>
</svg>